<svg width="116" height="31" viewBox="0 0 116 31" fill="none" xmlns="http://www.w3.org/2000/svg">
<path d="M41.8467 22.17C40.9827 22.17 40.1747 22.026 39.4227 21.738C38.6707 21.45 38.0067 21.018 37.4307 20.442C36.8707 19.882 36.4307 19.194 36.1107 18.378C35.7907 17.562 35.6307 16.634 35.6307 15.594C35.6307 14.682 35.7747 13.874 36.0627 13.17C36.3667 12.45 36.7827 11.85 37.3107 11.37C37.8547 10.89 38.4867 10.522 39.2067 10.266C39.9427 10.01 40.7427 9.88196 41.6067 9.88196C42.2307 9.88196 42.8547 10.002 43.4787 10.242C44.1187 10.466 44.6867 10.794 45.1827 11.226C45.6947 11.674 46.1107 12.226 46.4307 12.882C46.7507 13.522 46.9107 14.258 46.9107 15.09V16.458H38.1507C38.2627 17.658 38.6707 18.618 39.3747 19.338C40.0947 20.042 41.1187 20.458 42.4467 20.586C42.6707 20.618 43.1027 20.602 43.7427 20.538C44.3987 20.474 45.0627 20.298 45.7347 20.01C45.9267 19.93 46.0947 19.93 46.2387 20.01C46.3987 20.09 46.5107 20.202 46.5747 20.346C46.6387 20.506 46.6467 20.674 46.5987 20.85C46.5507 21.026 46.4227 21.17 46.2147 21.282C45.6067 21.618 44.9667 21.85 44.2947 21.978C43.6227 22.106 42.8067 22.17 41.8467 22.17ZM41.5347 11.346C40.7507 11.346 40.0147 11.61 39.3267 12.138C38.6547 12.666 38.2627 13.546 38.1507 14.778H44.4627C44.4627 13.53 44.1587 12.65 43.5507 12.138C42.9427 11.61 42.2707 11.346 41.5347 11.346ZM48.912 11.682C48.8 11.618 48.664 11.57 48.504 11.538C48.36 11.49 48.216 11.466 48.072 11.466C47.832 11.466 47.656 11.394 47.544 11.25C47.416 11.106 47.352 10.938 47.352 10.746C47.352 10.586 47.416 10.442 47.544 10.314C47.656 10.186 47.792 10.122 47.952 10.122H50.472C50.856 10.122 51.16 10.25 51.384 10.506C51.624 10.746 51.744 10.898 51.744 10.962V11.85C51.792 11.738 51.888 11.578 52.032 11.37C52.176 11.146 52.384 10.922 52.656 10.698C52.928 10.49 53.264 10.306 53.664 10.146C54.064 9.96996 54.536 9.88196 55.08 9.88196C56.12 9.88196 56.904 10.122 57.432 10.602C57.976 11.082 58.32 11.57 58.464 12.066C58.464 12.066 58.52 11.954 58.632 11.73C58.744 11.506 58.936 11.258 59.208 10.986C59.496 10.714 59.864 10.466 60.312 10.242C60.776 10.002 61.352 9.88196 62.04 9.88196C63.176 9.88196 64.032 10.266 64.608 11.034C65.2 11.802 65.496 12.81 65.496 14.058V21.93H63.144V14.682C63.144 13.882 63.016 13.21 62.76 12.666C62.52 12.106 62.048 11.826 61.344 11.826C60.88 11.826 60.48 11.978 60.144 12.282C59.808 12.57 59.52 12.922 59.28 13.338C59.056 13.77 58.888 14.226 58.776 14.706C58.664 15.17 58.608 15.586 58.608 15.954V21.93H56.256V14.01C56.256 13.434 56.136 12.922 55.896 12.474C55.656 12.026 55.2 11.802 54.528 11.802C54.192 11.802 53.856 11.93 53.52 12.186C53.2 12.426 52.904 12.738 52.632 13.122C52.376 13.522 52.16 13.986 51.984 14.514C51.824 15.026 51.744 15.554 51.744 16.098V21.93H49.392V13.386C49.392 13.178 49.384 12.994 49.368 12.834C49.368 12.658 49.352 12.498 49.32 12.354C49.304 12.21 49.256 12.09 49.176 11.994C49.112 11.882 49.024 11.778 48.912 11.682ZM71.1313 14.97V17.73C71.1313 18.05 71.1873 18.386 71.2993 18.738C71.4113 19.074 71.5953 19.378 71.8513 19.65C72.0913 19.938 72.3953 20.17 72.7633 20.346C73.1473 20.522 73.6033 20.61 74.1314 20.61C75.1073 20.61 75.8593 20.186 76.3873 19.338C76.9313 18.474 77.2033 17.394 77.2033 16.098C77.2033 15.554 77.1473 15.01 77.0353 14.466C76.9393 13.922 76.7633 13.434 76.5073 13.002C76.2673 12.57 75.9393 12.226 75.5234 11.97C75.1233 11.698 74.6273 11.562 74.0353 11.562C73.5713 11.562 73.1553 11.666 72.7873 11.874C72.4353 12.066 72.1393 12.33 71.8993 12.666C71.6433 12.986 71.4513 13.354 71.3233 13.77C71.1953 14.17 71.1313 14.57 71.1313 14.97ZM68.7313 21.93V7.84196C68.7313 7.64996 68.7233 7.47396 68.7073 7.31396C68.7073 7.13796 68.6913 6.97796 68.6593 6.83396C68.6433 6.68996 68.5953 6.56996 68.5153 6.47396C68.4513 6.36196 68.3633 6.25796 68.2513 6.16196C68.1393 6.09796 68.0033 6.04196 67.8433 5.99396C67.6993 5.94596 67.5553 5.92196 67.4113 5.92196C67.1713 5.92196 66.9873 5.86596 66.8593 5.75396C66.7313 5.62596 66.6673 5.44996 66.6673 5.22596C66.6673 5.01796 66.7313 4.86596 66.8593 4.76996C66.9873 4.65796 67.1313 4.60196 67.2913 4.60196H69.8113C70.1953 4.60196 70.4993 4.73796 70.7233 5.00996C70.9633 5.28196 71.0833 5.53796 71.0833 5.77796V11.322C71.1313 11.242 71.2433 11.122 71.4193 10.962C71.6113 10.802 71.8593 10.642 72.1633 10.482C72.4513 10.322 72.7953 10.186 73.1953 10.074C73.5953 9.94596 74.0433 9.88196 74.5393 9.88196C75.4513 9.88196 76.2353 10.058 76.8913 10.41C77.5473 10.762 78.0833 11.226 78.4993 11.802C78.9153 12.378 79.2193 13.034 79.4113 13.77C79.6193 14.506 79.7233 15.258 79.7233 16.026C79.7233 16.794 79.6113 17.546 79.3873 18.282C79.1793 19.018 78.8593 19.674 78.4273 20.25C77.9793 20.826 77.4113 21.29 76.7233 21.642C76.0513 21.994 75.2433 22.17 74.2994 22.17C73.4353 22.17 72.7153 22.05 72.1393 21.81C71.5633 21.57 71.1313 21.298 70.8433 20.994C70.8433 20.994 70.7393 21.13 70.5313 21.402C70.3393 21.658 70.0513 21.826 69.6673 21.906C69.5233 21.938 69.3313 21.946 69.0913 21.93C68.8513 21.93 68.7313 21.93 68.7313 21.93ZM89.0429 21.93V20.634C88.6108 21.114 88.0668 21.49 87.4108 21.762C86.7708 22.05 85.9228 22.194 84.8668 22.194C83.8908 22.194 83.0988 21.89 82.4908 21.282C81.8828 20.674 81.5788 19.89 81.5788 18.93C81.5788 18.13 81.7788 17.458 82.1788 16.914C82.5948 16.37 83.1148 15.93 83.7388 15.594C84.3628 15.258 85.0428 15.018 85.7788 14.874C86.5308 14.73 87.2428 14.658 87.9148 14.658C88.0108 14.658 88.1228 14.658 88.2508 14.658C88.3788 14.658 88.4988 14.65 88.6108 14.634C88.7228 14.634 88.8188 14.634 88.8988 14.634C88.9788 14.618 89.0268 14.61 89.0429 14.61V13.986C89.0429 13.698 89.0028 13.402 88.9228 13.098C88.8428 12.778 88.7148 12.498 88.5389 12.258C88.3468 12.002 88.0908 11.794 87.7708 11.634C87.4508 11.474 87.0508 11.394 86.5708 11.394C85.8508 11.394 85.2908 11.57 84.8908 11.922C84.4908 12.274 84.2908 12.786 84.2908 13.458H81.7228C81.7228 13.058 81.8108 12.65 81.9868 12.234C82.1788 11.802 82.4828 11.41 82.8988 11.058C83.2988 10.722 83.8108 10.442 84.4348 10.218C85.0588 9.99396 85.8028 9.88196 86.6668 9.88196C88.1548 9.88196 89.3148 10.258 90.1469 11.01C90.9788 11.746 91.3948 12.762 91.3948 14.058V21.93H89.0429ZM89.0429 17.706V16.122C88.7228 16.122 88.3308 16.138 87.8668 16.17C87.4028 16.186 86.9468 16.242 86.4988 16.338C85.8428 16.498 85.2828 16.754 84.8188 17.106C84.3548 17.458 84.1228 17.986 84.1228 18.69C84.1228 18.85 84.1388 19.034 84.1708 19.242C84.2188 19.434 84.3068 19.61 84.4348 19.77C84.5628 19.946 84.7388 20.09 84.9628 20.202C85.1868 20.314 85.4828 20.37 85.8508 20.37C86.2508 20.37 86.6348 20.314 87.0028 20.202C87.3868 20.074 87.7308 19.89 88.0348 19.65C88.3388 19.426 88.5788 19.154 88.7548 18.834C88.9468 18.498 89.0429 18.122 89.0429 17.706ZM94.9596 21.93V13.386C94.9596 13.178 94.9516 12.994 94.9356 12.834C94.9356 12.658 94.9196 12.498 94.8876 12.354C94.8716 12.21 94.8236 12.09 94.7436 11.994C94.6796 11.882 94.5916 11.778 94.4796 11.682C94.3676 11.618 94.2316 11.57 94.0716 11.538C93.9276 11.49 93.7836 11.466 93.6396 11.466C93.3996 11.466 93.2156 11.394 93.0876 11.25C92.9756 11.106 92.9196 10.938 92.9196 10.746C92.9196 10.586 92.9756 10.442 93.0876 10.314C93.2156 10.186 93.3596 10.122 93.5196 10.122H96.0636C96.4476 10.122 96.7516 10.25 96.9756 10.506C97.2156 10.762 97.3356 10.954 97.3356 11.082V11.946C97.3516 11.85 97.4396 11.69 97.5996 11.466C97.7756 11.242 98.0156 11.018 98.3196 10.794C98.6236 10.57 98.9836 10.378 99.3996 10.218C99.8316 10.042 100.328 9.95396 100.888 9.95396H102.208V12.354C100.592 12.114 99.3756 12.29 98.5596 12.882C97.7436 13.474 97.3356 14.538 97.3356 16.074V21.93H94.9596ZM106.639 5.82596V14.298L111.463 10.146H114.199L108.535 15.09L114.943 21.93H111.919L106.639 16.242V21.93H104.263V7.86596C104.263 7.67396 104.255 7.49796 104.239 7.33796C104.239 7.16196 104.223 7.00196 104.191 6.85796C104.175 6.71396 104.127 6.59396 104.047 6.49796C103.983 6.38596 103.895 6.28196 103.783 6.18596C103.671 6.10596 103.535 6.04196 103.375 5.99396C103.231 5.94596 103.087 5.92196 102.943 5.92196C102.703 5.92196 102.519 5.85796 102.391 5.72996C102.279 5.60196 102.223 5.44196 102.223 5.24996C102.223 5.08996 102.279 4.94596 102.391 4.81796C102.519 4.68996 102.663 4.62596 102.823 4.62596H105.367C105.751 4.62596 106.055 4.76996 106.279 5.05796C106.519 5.32996 106.639 5.58596 106.639 5.82596Z" fill="#003049"/>
<path fill-rule="evenodd" clip-rule="evenodd" d="M13.5565 6.64784L15.2632 4.94117C16.6371 3.56517 19.0499 2.61157 21.4456 2.2681C22.5077 2.10263 23.588 2.08826 24.6541 2.22544C25.5992 2.36624 26.1773 2.64357 26.4461 2.9145C26.7171 3.1833 26.9944 3.76144 27.1352 4.7065C27.2717 5.61744 27.2611 6.73317 27.0925 7.91504C26.7512 10.3108 25.7955 12.7236 24.4195 14.0974L14.9347 23.5844L12.4899 21.1396C12.3908 21.0404 12.2732 20.9617 12.1438 20.908C12.0143 20.8542 11.8756 20.8265 11.7354 20.8264C11.5953 20.8263 11.4565 20.8539 11.3269 20.9074C11.1974 20.9609 11.0797 21.0395 10.9805 21.1385C10.7802 21.3385 10.6676 21.6099 10.6674 21.893C10.6673 22.0331 10.6948 22.1719 10.7484 22.3014C10.8019 22.431 10.8804 22.5487 10.9795 22.6478L14.1795 25.8478C14.2786 25.9472 14.3963 26.026 14.5258 26.0798C14.6554 26.1335 14.7944 26.1612 14.9347 26.1612C15.075 26.1612 15.2139 26.1335 15.3435 26.0798C15.4731 26.026 15.5908 25.9472 15.6899 25.8478L16.8568 24.6788L19.3528 28.8409C19.436 28.9803 19.55 29.0988 19.686 29.1875C19.8219 29.2761 19.9763 29.3326 20.1374 29.3525C20.2985 29.3725 20.4621 29.3554 20.6156 29.3026C20.7691 29.2498 20.9085 29.1627 21.0232 29.0478L25.2899 24.7812C25.407 24.6638 25.4952 24.5208 25.5474 24.3634C25.5997 24.206 25.6145 24.0386 25.5907 23.8745L24.5987 16.9369L25.9299 15.6078C27.7539 13.7817 28.8269 10.8612 29.2045 8.21584C29.3965 6.87824 29.4179 5.54917 29.2451 4.38864C29.0744 3.26224 28.6989 2.14864 27.9565 1.4041C27.212 0.661703 26.0984 0.284103 24.9699 0.11557C23.6993 -0.0516969 22.4113 -0.0373308 21.1448 0.158237C18.4973 0.53157 15.5747 1.60464 13.7528 3.42864L12.4237 4.75984L5.48613 3.76784C5.32203 3.74405 5.15463 3.75885 4.99724 3.81107C4.83986 3.86328 4.69681 3.95147 4.57947 4.06864L0.312799 8.3353C0.197959 8.45003 0.110817 8.58945 0.0580133 8.74295C0.00520912 8.89645 -0.0118648 9.05997 0.00809213 9.22107C0.0280491 9.38216 0.0845104 9.53658 0.173175 9.67255C0.26184 9.80853 0.380369 9.92247 0.519733 10.0057L4.67973 12.5017L3.5128 13.6686C3.41346 13.7677 3.33465 13.8854 3.28088 14.015C3.22711 14.1446 3.19943 14.2835 3.19943 14.4238C3.19943 14.5641 3.22711 14.7031 3.28088 14.8327C3.33465 14.9622 3.41346 15.08 3.5128 15.179L6.7128 18.379C6.81197 18.4782 6.92971 18.5569 7.05929 18.6106C7.18887 18.6642 7.32775 18.6919 7.468 18.6919C7.60825 18.6919 7.74713 18.6642 7.87671 18.6106C8.00629 18.5569 8.12403 18.4782 8.2232 18.379C8.32237 18.2799 8.40104 18.1621 8.45472 18.0325C8.50839 17.903 8.53601 17.7641 8.53601 17.6238C8.53601 17.4836 8.50839 17.3447 8.45472 17.2151C8.40104 17.0855 8.32237 16.9678 8.2232 16.8686L5.77627 14.426L7.15653 13.0478L13.5565 6.64784ZM20.4792 26.5732L18.4099 23.1236L22.7128 18.8228L23.404 23.6484L20.4813 26.571L20.4792 26.5732ZM6.23707 10.9486L10.5379 6.64784L5.71227 5.95664L2.7896 8.8793L6.23707 10.9486ZM3.9544 20.5145C4.05357 20.4155 4.13227 20.2979 4.186 20.1684C4.23972 20.039 4.26743 19.9002 4.26753 19.7601C4.26763 19.6199 4.24012 19.4811 4.18657 19.3516C4.13303 19.2221 4.0545 19.1043 3.95547 19.0052C3.85643 18.906 3.73883 18.8273 3.60939 18.7736C3.47994 18.7198 3.34118 18.6921 3.20102 18.692C3.06087 18.6919 2.92206 18.7195 2.79254 18.773C2.66302 18.8265 2.54531 18.9051 2.44613 19.0041L0.312799 21.1374C0.112791 21.3377 0.000539391 21.6093 0.00073943 21.8923C0.000939469 22.1754 0.113574 22.4468 0.313866 22.6468C0.514157 22.8468 0.785699 22.959 1.06875 22.9588C1.35181 22.9586 1.62319 22.846 1.8232 22.6457L3.95653 20.5124L3.9544 20.5145ZM7.1544 23.7145C7.25628 23.6161 7.33754 23.4984 7.39344 23.3683C7.44934 23.2381 7.47877 23.0982 7.48 22.9565C7.48123 22.8149 7.45424 22.6744 7.40061 22.5434C7.34698 22.4123 7.26777 22.2932 7.16762 22.193C7.06747 22.0929 6.94837 22.0137 6.81728 21.96C6.68619 21.9064 6.54574 21.8794 6.4041 21.8806C6.26247 21.8819 6.12251 21.9113 5.99237 21.9672C5.86223 22.0231 5.74453 22.1044 5.64613 22.2062L1.37947 26.4729C1.17946 26.6732 1.06721 26.9447 1.06741 27.2278C1.06761 27.5108 1.18024 27.7822 1.38053 27.9822C1.58082 28.1822 1.85237 28.2945 2.13542 28.2943C2.41848 28.2941 2.68986 28.1815 2.88987 27.9812L7.15653 23.7145H7.1544ZM10.3544 26.9145C10.4536 26.8155 10.5323 26.6979 10.586 26.5684C10.6397 26.439 10.6674 26.3002 10.6675 26.1601C10.6676 26.0199 10.6401 25.8811 10.5866 25.7516C10.533 25.6221 10.4545 25.5043 10.3555 25.4052C10.2564 25.306 10.1388 25.2273 10.0094 25.1736C9.87994 25.1198 9.74118 25.0921 9.60102 25.092C9.46087 25.0919 9.32206 25.1195 9.19254 25.173C9.06302 25.2265 8.94531 25.3051 8.84613 25.4041L6.7128 27.5374C6.51279 27.7377 6.40054 28.0093 6.40074 28.2923C6.40094 28.5754 6.51358 28.8468 6.71387 29.0468C6.91416 29.2468 7.1857 29.359 7.46875 29.3588C7.75181 29.3586 8.02319 29.246 8.2232 29.0457L10.3565 26.9124L10.3544 26.9145ZM19.2013 12.8217C19.908 12.8217 20.5857 12.541 21.0854 12.0413C21.5851 11.5416 21.8659 10.8638 21.8659 10.1572C21.8659 9.45049 21.5851 8.77276 21.0854 8.27306C20.5857 7.77336 19.908 7.49264 19.2013 7.49264C18.4947 7.49264 17.8169 7.77336 17.3172 8.27306C16.8175 8.77276 16.5368 9.45049 16.5368 10.1572C16.5368 10.8638 16.8175 11.5416 17.3172 12.0413C17.8169 12.541 18.4947 12.8217 19.2013 12.8217V12.8217Z" fill="url(#paint0_linear)"/>
<defs>
<linearGradient id="paint0_linear" x1="14.6813" y1="0" x2="14.6813" y2="29.3606" gradientUnits="userSpaceOnUse">
<stop stop-color="#FD749B"/>
<stop offset="1" stop-color="#281AC8"/>
</linearGradient>
</defs>
</svg>
