<svg width="116" height="31" viewBox="0 0 116 31" fill="none" xmlns="http://www.w3.org/2000/svg">
<path d="M41.837 24.6603C40.1183 24.6603 38.7198 24.0978 37.6417 22.9728C36.5636 21.84 36.0245 20.3283 36.0245 18.4377V18.0392C36.0245 16.7814 36.2628 15.6603 36.7393 14.676C37.2237 13.6838 37.8956 12.9103 38.755 12.3557C39.6222 11.7932 40.5597 11.5119 41.5675 11.5119C43.2159 11.5119 44.4972 12.0549 45.4112 13.1408C46.3253 14.2267 46.7823 15.7814 46.7823 17.8049V18.7072H38.1925C38.2237 19.9572 38.587 20.9689 39.2823 21.7424C39.9854 22.508 40.8761 22.8908 41.9542 22.8908C42.7198 22.8908 43.3683 22.7346 43.8995 22.4221C44.4308 22.1096 44.8956 21.6955 45.294 21.1799L46.6183 22.2111C45.5558 23.8439 43.962 24.6603 41.837 24.6603ZM41.5675 13.2932C40.6925 13.2932 39.9581 13.6135 39.3643 14.2541C38.7706 14.8869 38.4034 15.7775 38.2628 16.926H44.6143V16.7619C44.5518 15.6603 44.255 14.8088 43.7237 14.2072C43.1925 13.5978 42.4737 13.2932 41.5675 13.2932ZM51.3409 11.7463L51.3995 13.1525C52.3292 12.0588 53.5831 11.5119 55.1612 11.5119C56.9347 11.5119 58.1417 12.1916 58.7823 13.551C59.2042 12.9416 59.7511 12.4494 60.4229 12.0744C61.1026 11.6994 61.9034 11.5119 62.8253 11.5119C65.6065 11.5119 67.0206 12.9846 67.0675 15.9299V24.426H64.8995V16.0588C64.8995 15.1525 64.6925 14.4767 64.2784 14.0314C63.8643 13.5783 63.169 13.3517 62.1925 13.3517C61.3878 13.3517 60.7198 13.5939 60.1886 14.0783C59.6573 14.5549 59.3487 15.1994 59.2628 16.0119V24.426H57.0831V16.1174C57.0831 14.2736 56.1808 13.3517 54.3761 13.3517C52.9542 13.3517 51.9815 13.9572 51.4581 15.1682V24.426H49.2901V11.7463H51.3409ZM81.0831 18.2267C81.0831 20.1642 80.6378 21.7228 79.7472 22.9025C78.8565 24.0744 77.6612 24.6603 76.1612 24.6603C74.5597 24.6603 73.3214 24.0939 72.4464 22.9611L72.3409 24.426H70.3487V6.42596H72.5167V13.1408C73.3917 12.0549 74.5987 11.5119 76.1378 11.5119C77.6768 11.5119 78.8839 12.0939 79.7589 13.258C80.6417 14.4221 81.0831 16.0158 81.0831 18.0392V18.2267ZM78.9151 17.9807C78.9151 16.5041 78.63 15.3635 78.0597 14.5588C77.4893 13.7541 76.669 13.3517 75.5987 13.3517C74.169 13.3517 73.1417 14.0158 72.5167 15.3439V20.8283C73.1808 22.1564 74.2159 22.8205 75.6222 22.8205C76.6612 22.8205 77.4698 22.4182 78.0479 21.6135C78.6261 20.8088 78.9151 19.5978 78.9151 17.9807ZM91.6534 24.426C91.5284 24.176 91.4268 23.7307 91.3487 23.09C90.3409 24.1369 89.1378 24.6603 87.7393 24.6603C86.4893 24.6603 85.462 24.3088 84.6573 23.6057C83.8604 22.8947 83.462 21.9963 83.462 20.9103C83.462 19.59 83.962 18.5666 84.962 17.84C85.9698 17.1057 87.3839 16.7385 89.2042 16.7385H91.3136V15.7424C91.3136 14.9846 91.087 14.383 90.6339 13.9377C90.1808 13.4846 89.5128 13.258 88.63 13.258C87.8565 13.258 87.2081 13.4533 86.6847 13.8439C86.1612 14.2346 85.8995 14.7072 85.8995 15.2619H83.7198C83.7198 14.6291 83.9425 14.0197 84.3878 13.4338C84.8409 12.84 85.4503 12.3713 86.2159 12.0275C86.9893 11.6838 87.837 11.5119 88.7589 11.5119C90.2198 11.5119 91.3643 11.8791 92.1925 12.6135C93.0206 13.34 93.4503 14.3439 93.4815 15.6252V21.4611C93.4815 22.6252 93.63 23.551 93.9268 24.2385V24.426H91.6534ZM88.0558 22.7736C88.7354 22.7736 89.38 22.5978 89.9893 22.2463C90.5987 21.8947 91.0401 21.4377 91.3136 20.8752V18.2736H89.6143C86.9581 18.2736 85.63 19.051 85.63 20.6057C85.63 21.2853 85.8565 21.8166 86.3097 22.1994C86.7628 22.5822 87.3448 22.7736 88.0558 22.7736ZM103.009 13.6916C102.681 13.6369 102.325 13.6096 101.942 13.6096C100.521 13.6096 99.5558 14.215 99.0479 15.426V24.426H96.88V11.7463H98.9893L99.0245 13.2111C99.7354 12.0783 100.743 11.5119 102.048 11.5119C102.47 11.5119 102.79 11.5666 103.009 11.676V13.6916ZM108.552 18.5549L107.192 19.9728V24.426H105.025V6.42596H107.192V17.3127L108.353 15.9182L112.302 11.7463H114.939L110.005 17.0432L115.513 24.426H112.97L108.552 18.5549Z" fill="#003566"/>
<path fill-rule="evenodd" clip-rule="evenodd" d="M13.5565 6.64784L15.2632 4.94117C16.6371 3.56517 19.0499 2.61157 21.4456 2.2681C22.5077 2.10263 23.588 2.08826 24.6541 2.22544C25.5992 2.36624 26.1773 2.64357 26.4461 2.9145C26.7171 3.1833 26.9944 3.76144 27.1352 4.7065C27.2717 5.61744 27.2611 6.73317 27.0925 7.91504C26.7512 10.3108 25.7955 12.7236 24.4195 14.0974L14.9347 23.5844L12.4899 21.1396C12.3908 21.0404 12.2732 20.9617 12.1438 20.908C12.0143 20.8542 11.8756 20.8265 11.7354 20.8264C11.5953 20.8263 11.4565 20.8539 11.3269 20.9074C11.1974 20.9609 11.0797 21.0395 10.9805 21.1385C10.7802 21.3385 10.6676 21.6099 10.6674 21.893C10.6673 22.0331 10.6948 22.1719 10.7484 22.3014C10.8019 22.431 10.8804 22.5487 10.9795 22.6478L14.1795 25.8478C14.2786 25.9472 14.3963 26.026 14.5258 26.0798C14.6554 26.1335 14.7944 26.1612 14.9347 26.1612C15.075 26.1612 15.2139 26.1335 15.3435 26.0798C15.4731 26.026 15.5908 25.9472 15.6899 25.8478L16.8568 24.6788L19.3528 28.8409C19.436 28.9803 19.55 29.0988 19.686 29.1875C19.8219 29.2761 19.9763 29.3326 20.1374 29.3525C20.2985 29.3725 20.4621 29.3554 20.6156 29.3026C20.7691 29.2498 20.9085 29.1627 21.0232 29.0478L25.2899 24.7812C25.407 24.6638 25.4952 24.5208 25.5474 24.3634C25.5997 24.206 25.6145 24.0386 25.5907 23.8745L24.5987 16.9369L25.9299 15.6078C27.7539 13.7817 28.8269 10.8612 29.2045 8.21584C29.3965 6.87824 29.4179 5.54917 29.2451 4.38864C29.0744 3.26224 28.6989 2.14864 27.9565 1.4041C27.212 0.661703 26.0984 0.284103 24.9699 0.11557C23.6993 -0.0516969 22.4113 -0.0373308 21.1448 0.158237C18.4973 0.53157 15.5747 1.60464 13.7528 3.42864L12.4237 4.75984L5.48613 3.76784C5.32203 3.74405 5.15463 3.75885 4.99724 3.81107C4.83986 3.86328 4.69681 3.95147 4.57947 4.06864L0.312799 8.3353C0.197959 8.45003 0.110817 8.58945 0.0580133 8.74295C0.00520912 8.89645 -0.0118648 9.05997 0.00809213 9.22107C0.0280491 9.38216 0.0845104 9.53658 0.173175 9.67255C0.26184 9.80853 0.380369 9.92247 0.519733 10.0057L4.67973 12.5017L3.5128 13.6686C3.41346 13.7677 3.33465 13.8854 3.28088 14.015C3.22711 14.1446 3.19943 14.2835 3.19943 14.4238C3.19943 14.5641 3.22711 14.7031 3.28088 14.8327C3.33465 14.9622 3.41346 15.08 3.5128 15.179L6.7128 18.379C6.81197 18.4782 6.92971 18.5569 7.05929 18.6106C7.18887 18.6642 7.32775 18.6919 7.468 18.6919C7.60825 18.6919 7.74713 18.6642 7.87671 18.6106C8.00629 18.5569 8.12403 18.4782 8.2232 18.379C8.32237 18.2799 8.40104 18.1621 8.45472 18.0325C8.50839 17.903 8.53601 17.7641 8.53601 17.6238C8.53601 17.4836 8.50839 17.3447 8.45472 17.2151C8.40104 17.0855 8.32237 16.9678 8.2232 16.8686L5.77627 14.426L7.15653 13.0478L13.5565 6.64784ZM20.4792 26.5732L18.4099 23.1236L22.7128 18.8228L23.404 23.6484L20.4813 26.571L20.4792 26.5732ZM6.23707 10.9486L10.5379 6.64784L5.71227 5.95664L2.7896 8.8793L6.23707 10.9486ZM3.9544 20.5145C4.05357 20.4155 4.13227 20.2979 4.186 20.1684C4.23972 20.039 4.26743 19.9002 4.26753 19.7601C4.26763 19.6199 4.24012 19.4811 4.18657 19.3516C4.13303 19.2221 4.0545 19.1043 3.95547 19.0052C3.85643 18.906 3.73883 18.8273 3.60939 18.7736C3.47994 18.7198 3.34118 18.6921 3.20102 18.692C3.06087 18.6919 2.92206 18.7195 2.79254 18.773C2.66302 18.8265 2.54531 18.9051 2.44613 19.0041L0.312799 21.1374C0.112791 21.3377 0.000539391 21.6093 0.00073943 21.8923C0.000939469 22.1754 0.113574 22.4468 0.313866 22.6468C0.514157 22.8468 0.785699 22.959 1.06875 22.9588C1.35181 22.9586 1.62319 22.846 1.8232 22.6457L3.95653 20.5124L3.9544 20.5145ZM7.1544 23.7145C7.25628 23.6161 7.33754 23.4984 7.39344 23.3683C7.44934 23.2381 7.47877 23.0982 7.48 22.9565C7.48123 22.8149 7.45424 22.6744 7.40061 22.5434C7.34698 22.4123 7.26777 22.2932 7.16762 22.193C7.06747 22.0929 6.94837 22.0137 6.81728 21.96C6.68619 21.9064 6.54574 21.8794 6.4041 21.8806C6.26247 21.8819 6.12251 21.9113 5.99237 21.9672C5.86223 22.0231 5.74453 22.1044 5.64613 22.2062L1.37947 26.4729C1.17946 26.6732 1.06721 26.9447 1.06741 27.2278C1.06761 27.5108 1.18024 27.7822 1.38053 27.9822C1.58082 28.1822 1.85237 28.2945 2.13542 28.2943C2.41848 28.2941 2.68986 28.1815 2.88987 27.9812L7.15653 23.7145H7.1544ZM10.3544 26.9145C10.4536 26.8155 10.5323 26.6979 10.586 26.5684C10.6397 26.439 10.6674 26.3002 10.6675 26.1601C10.6676 26.0199 10.6401 25.8811 10.5866 25.7516C10.533 25.6221 10.4545 25.5043 10.3555 25.4052C10.2564 25.306 10.1388 25.2273 10.0094 25.1736C9.87994 25.1198 9.74118 25.0921 9.60102 25.092C9.46087 25.0919 9.32206 25.1195 9.19254 25.173C9.06302 25.2265 8.94531 25.3051 8.84613 25.4041L6.7128 27.5374C6.51279 27.7377 6.40054 28.0093 6.40074 28.2923C6.40094 28.5754 6.51358 28.8468 6.71387 29.0468C6.91416 29.2468 7.1857 29.359 7.46875 29.3588C7.75181 29.3586 8.02319 29.246 8.2232 29.0457L10.3565 26.9124L10.3544 26.9145ZM19.2013 12.8217C19.908 12.8217 20.5857 12.541 21.0854 12.0413C21.5851 11.5416 21.8659 10.8638 21.8659 10.1572C21.8659 9.45049 21.5851 8.77276 21.0854 8.27306C20.5857 7.77336 19.908 7.49264 19.2013 7.49264C18.4947 7.49264 17.8169 7.77336 17.3172 8.27306C16.8175 8.77276 16.5368 9.45049 16.5368 10.1572C16.5368 10.8638 16.8175 11.5416 17.3172 12.0413C17.8169 12.541 18.4947 12.8217 19.2013 12.8217V12.8217Z" fill="#003566"/>
</svg>
